<?xml version="1.0" encoding="UTF-8" standalone="no"?>
<svg
   id="emoji"
   viewBox="0 0 48 48"
   version="1.1"
   sodipodi:docname="favicon.svg"
   width="48"
   height="48"
   inkscape:version="1.1.2 (0a00cf5339, 2022-02-04)"
   xmlns:inkscape="http://www.inkscape.org/namespaces/inkscape"
   xmlns:sodipodi="http://sodipodi.sourceforge.net/DTD/sodipodi-0.dtd"
   xmlns="http://www.w3.org/2000/svg"
   xmlns:svg="http://www.w3.org/2000/svg">
  <defs
     id="defs41" />
  <sodipodi:namedview
     id="namedview39"
     pagecolor="#ffffff"
     bordercolor="#666666"
     borderopacity="1.0"
     inkscape:pageshadow="2"
     inkscape:pageopacity="0.0"
     inkscape:pagecheckerboard="0"
     showgrid="false"
     fit-margin-top="0"
     fit-margin-left="0"
     fit-margin-right="0"
     fit-margin-bottom="0"
     inkscape:zoom="9.1944444"
     inkscape:cx="-8.1570997"
     inkscape:cy="19.740181"
     inkscape:window-width="1920"
     inkscape:window-height="1127"
     inkscape:window-x="0"
     inkscape:window-y="44"
     inkscape:window-maximized="1"
     inkscape:current-layer="emoji" />
  <g
     id="g911"
     transform="matrix(0.78617586,0,0,0.78617586,6.4749771,1.9773665)">
    <g
       id="color"
       transform="translate(-16.5073,-9.9585)">
      <path
         fill="#ea5a47"
         d="M 43.7741,52.4718 C 42.411,49.065 40.5073,42.9583 43.212,40.9583 c 2.7047,-2 6.2951,1.4808 6.2951,1.4808 v 0 c 0.5942,0.5393 1.3909,0.7984 2.1887,0.7117 1.0706,-0.1689 1.8475,-1.1093 1.8113,-2.1925 -10e-4,-0.4278 -0.1404,-0.8438 -0.3974,-1.1859 -1.0019,-1.4007 0.6813,-3.1193 2.4438,-2.86 v 0 c 0.15,0.02 0.3,0.0241 0.4536,0.0457 1.355,0.2332 2.7025,-0.4504 3.3147,-1.6815 0.7434,-1.487 -0.0512,-2.909 -0.808,-4.2547 L 58.44,30.88 c -0.8084,-1.6185 -1.1385,-3.4339 -0.9517,-5.2333 0.0048,-0.0633 0.019,-0.1237 0.019,-0.1882 0,-1.3807 -1.1193,-2.5 -2.5,-2.5 -1.3807,0 -2.5,1.1193 -2.5,2.5 -0.011,3.5955 -3,10.5 -7,9.2532 -4,-1.2468 -1,-9.7532 2,-13.7532 1.7292,-2.1427 2.7744,-4.7558 3,-7.5 0,-1.3807 -1.1193,-2.5 -2.5,-2.5 -1.3807,0 -2.5,1.1193 -2.5,2.5 0,0 0,4.5 -3,4.5 -3,0 -3,-4 -3,-4 0,-1.6569 -1.3431,-3 -3,-3 -1.6569,0 -3,1.3431 -3,3 0,5 5,9 6,16.5074 1,7.5074 -3.2073,9.7117 -5.0534,9.4956 -2.0394,-0.2389 -3.9466,-4.0032 -1.9466,-8.0032 1.1938,-2.4872 1.5448,-5.2955 1,-8 0,-1.1046 -0.8954,-2 -2,-2 -1.1046,0 -2,0.8954 -2,2 0,5 -1,6 -3.0356,6 -2.0356,0 -2.9644,-5 -2.9644,-5 0,-1.6569 -1.3431,-3 -3,-3 -1.6569,0 -3,1.3431 -3,3 0,7 5,10 10.96,16 3.4654,3.2241 4.5399,7.1582 2.1216,11.6874 -0.5103,0.9558 -2.4391,4.8122 -2.4391,4.8122 2.6926,2.0449 14.0121,1.0848 16.7531,-0.7344 0,0 -0.3465,-2.2965 -1.1288,-4.2518 z"
         id="path2" />
      <path
         fill="#d22f27"
         d="m 40.0883,47.1227 c -0.3514,2.7065 1.2158,8.7523 2.1694,10.0731 l 3.432,-1.1356 c 0,0 -0.6752,-1.8323 -1.2388,-3.4361 -0.6997,-1.9908 -3.9437,-9.6658 -1.239,-11.6658 0.2363,-0.1713 0.4955,-0.3084 0.77,-0.4074 -1.751,0.26 -3.4325,3.0201 -3.8936,6.5718 z"
         id="path4" />
      <path
         fill="#9b9b9a"
         d="m 31.4937,58.5617 c 0,2.1369 -2.791,2.9929 -6.2338,2.9929 -3.4428,0 -6.2338,-0.856 -6.2338,-2.9929 0,-2.1369 2.7909,-3.8693 6.2338,-3.8693 3.4429,0 6.2338,1.7324 6.2338,3.8693 z"
         id="path6" />
      <path
         fill="#9b9b9a"
         d="m 53.07,58.5763 c 0,2.2081 -2.8839,3.0926 -6.4415,3.0926 -3.5576,0 -6.4416,-0.8845 -6.4416,-3.0926 0,-2.2081 2.884,-3.9982 6.4416,-3.9982 3.5576,0 6.4415,1.79 6.4415,3.9982 z"
         id="path8" />
      <path
         fill="#d22f27"
         d="m 25.6916,31.1751 c 1.1838,-0.0873 2.2264,-0.8117 2.7211,-1.8907 -0.5204,0.4926 -1.2273,0.7381 -1.941,0.6739 -2.0357,0 -2.9644,-5 -2.9644,-5 -0.0019,-0.65 -0.2168,-1.2814 -0.6117,-1.7977 -0.4739,0.9275 -0.7172,1.9556 -0.7091,2.9971 0,2.771 1.5693,5.0174 3.5051,5.0174 z"
         id="path10" />
      <path
         fill="#d22f27"
         d="m 52.28,37.9124 c 0.0117,0.5976 0.2524,1.1678 0.6724,1.593 -0.6328,-1.3417 0.9494,-2.836 2.6012,-2.5928 0.15,0.02 0.3,0.024 0.4537,0.0457 0.9099,0.1386 1.8358,-0.1148 2.5484,-0.6973 -0.7455,-0.7098 -1.7416,-1.0958 -2.7707,-1.0736 -1.9358,0 -3.505,1.22 -3.505,2.725 z"
         id="path12" />
      <path
         fill="#d22f27"
         d="m 57.4883,25.6465 c 0.0047,-0.0632 0.019,-0.1237 0.019,-0.1882 -0.0013,-0.864 -0.4501,-1.6657 -1.1861,-2.1183 -0.6384,0.902 -1.0014,1.9698 -1.045,3.074 0,1.9358 1.4879,2.7147 2.96,4.054 0.0068,0.0061 0.0145,0.0084 0.0213,0.0144 -0.6639,-1.5202 -0.9287,-3.1847 -0.7692,-4.8359 z"
         id="path14" />
      <path
         fill="#d22f27"
         d="m 41.4275,29.7551 c 0,3.6709 1.6229,6.2032 4.1873,6.2032 1.529,-0.0986 2.888,-1.0087 3.5615,-2.3849 -0.9016,1.0546 -2.3289,1.4973 -3.669,1.1381 -4,-1.2469 -1,-9.7532 2,-13.7532 0.3916,-0.5228 0.7527,-1.0678 1.0817,-1.6321 -2.402,1.8188 -7.1615,6.7596 -7.1615,10.4289 z"
         id="path16" />
      <path
         fill="#d22f27"
         d="m 41.2015,19.1244 c 1.4716,-0.0687 2.7803,-0.9568 3.3877,-2.2989 -0.4485,0.7153 -1.2377,1.1448 -2.0819,1.1328 -3,0 -3,-4 -3,-4 -0.0027,-1.1287 -0.6409,-2.1596 -1.65,-2.6652 -0.4633,0.8651 -0.7024,1.8325 -0.6957,2.8138 1e-4,2.7711 1.8084,5.0175 4.0399,5.0175 z"
         id="path18" />
      <path
         fill="#d22f27"
         d="m 33.1613,40.9757 c 2.1061,0.1842 4.0942,-0.9989 4.9368,-2.9379 -0.8195,1.207 -2.1853,1.9279 -3.6442,1.9237 -2.0393,-0.2389 -3.9466,-4.0032 -1.9466,-8.0032 0.5899,-1.1933 0.9746,-2.4774 1.138,-3.7984 -1.5526,2.0672 -3.9891,5.0283 -3.9891,7.7984 0,2.7701 1.5856,4.7671 3.5051,5.0174 z"
         id="path20" />
      <path
         fill="#9b9b9a"
         d="m 43.882,60.7984 c 0,2.4383 -3.1845,3.4149 -7.1129,3.4149 -3.9284,0 -7.1129,-0.9766 -7.1129,-3.4149 0,-2.4383 3.1846,-4.4149 7.1129,-4.4149 3.9283,0 7.1129,1.9765 7.1129,4.4149 z"
         id="path22" />
      <path
         fill="#d0cfce"
         d="m 40.8755,61.1527 c 0,2.1853 -2.5115,3.0606 -5.61,3.0606 -3.0985,0 -5.61,-0.8753 -5.61,-3.0606 0,-2.1853 2.5115,-3.9569 5.61,-3.9569 3.0985,0 5.61,1.7715 5.61,3.9569 z"
         id="path24" />
      <path
         fill="#d0cfce"
         d="m 27.4162,57.9769 c 0,1.4208 -1.8782,1.99 -4.1951,1.99 -2.3169,0 -4.195,-0.5691 -4.195,-1.99 0,-1.4209 1.8782,-2.5726 4.195,-2.5726 2.3168,0 4.1951,1.1518 4.1951,2.5726 z"
         id="path26" />
    </g>
    <g
       id="line"
       transform="translate(-16.5073,-9.9585)">
      <path
         fill="none"
         stroke="#000000"
         stroke-linecap="round"
         stroke-linejoin="round"
         stroke-width="2"
         d="m 43.5073,52.9583 c 0,0 -3,-10 -0.2951,-12 2.7049,-2 6.2951,1.4808 6.2951,1.4808 v 0 c 0.5942,0.5393 1.3909,0.7984 2.1887,0.7117 1.0706,-0.1689 1.8475,-1.1093 1.8113,-2.1925 -10e-4,-0.4278 -0.1404,-0.8438 -0.3974,-1.1859 -1.0019,-1.4007 0.6813,-3.1193 2.4438,-2.86 v 0 c 0.15,0.02 0.3,0.0241 0.4536,0.0457 1.355,0.2332 2.7025,-0.4504 3.3147,-1.6815 0.7434,-1.487 -0.0512,-2.909 -0.808,-4.2547 L 58.44,30.88 c -0.8084,-1.6185 -1.1385,-3.4339 -0.9517,-5.2333 0.0048,-0.0633 0.019,-0.1237 0.019,-0.1882 0,-1.3807 -1.1193,-2.5 -2.5,-2.5 -1.3807,0 -2.5,1.1193 -2.5,2.5 -0.011,3.5955 -3,10.5 -7,9.2532 -4,-1.2468 -1,-9.7532 2,-13.7532 1.7292,-2.1427 2.7744,-4.7558 3,-7.5 0,-1.3807 -1.1193,-2.5 -2.5,-2.5 -1.3807,0 -2.5,1.1193 -2.5,2.5 0,0 0,4.5 -3,4.5 -3,0 -3,-4 -3,-4 0,-1.6569 -1.3431,-3 -3,-3 -1.6569,0 -3,1.3431 -3,3 0,5 5,9 6,16.5074 1,7.5074 -3.2073,9.7117 -5.0534,9.4956 -2.0394,-0.2389 -3.9466,-4.0032 -1.9466,-8.0032 1.1938,-2.4872 1.5448,-5.2955 1,-8 0,-1.1046 -0.8954,-2 -2,-2 -1.1046,0 -2,0.8954 -2,2 0,5 -1,6 -3.0356,6 -2.0356,0 -2.9644,-5 -2.9644,-5 0,-1.6569 -1.3431,-3 -3,-3 -1.6569,0 -3,1.3431 -3,3 0,7 5,10 10.96,16 5.96,6 3.0644,11.9594 3.0644,11.9594"
         id="path29" />
      <path
         fill="none"
         stroke="#000000"
         stroke-linecap="round"
         stroke-linejoin="round"
         stroke-width="2"
         d="m 43.882,60.7984 c 0,2.4383 -3.1845,3.4149 -7.1129,3.4149 -3.9284,0 -7.1129,-0.9766 -7.1129,-3.4149 0,-2.4383 3.1846,-4.4149 7.1129,-4.4149 3.9283,0 7.1129,1.9765 7.1129,4.4149 z"
         id="path31" />
      <path
         fill="none"
         stroke="#000000"
         stroke-linecap="round"
         stroke-linejoin="round"
         stroke-width="2"
         d="m 44.5447,55.7547 c 0,0 1.1946,-0.4209 2.6667,-0.4209 2.7993,0 5.0686,1.4085 5.0686,3.146 0,1.7375 -2.2693,2.4334 -5.0686,2.4334"
         id="path33" />
      <path
         fill="none"
         stroke="#000000"
         stroke-linecap="round"
         stroke-linejoin="round"
         stroke-width="2"
         d="m 26.0046,60.8236 c -0.5411,0.0619 -1.0854,0.0919 -1.63,0.09 -2.7992,0 -5.0685,-0.6959 -5.0685,-2.4334 0,-1.7375 2.2693,-3.146 5.0685,-3.146 1.0473,-0.0118 2.0848,0.2028 3.0414,0.6291"
         id="path35" />
    </g>
  </g>
</svg>
